<svg xmlns="http://www.w3.org/2000/svg" version="1.1" xmlns:xlink="http://www.w3.org/1999/xlink" xmlns:svgjs="http://svgjs.dev/svgjs" width="128" height="128" viewBox="0 0 128 128"><g transform="matrix(0.8046875,0,0,0.8046875,12.221578124999994,12.221578124999994)"><svg viewBox="0 0 96 96" data-background-color="#92daf2" preserveAspectRatio="xMidYMid meet" height="128" width="128" xmlns="http://www.w3.org/2000/svg" xmlns:xlink="http://www.w3.org/1999/xlink"><g id="tight-bounds" transform="matrix(1,0,0,1,0.25950000000000273,0.25950000000000273)"><svg viewBox="0 0 95.481 95.481" height="95.481" width="95.481"><g><svg viewBox="0 0 95.481 95.481" height="95.481" width="95.481"><g><svg viewBox="0 0 95.481 95.481" height="95.481" width="95.481"><g id="textblocktransform"><svg viewBox="0 0 95.481 95.481" height="95.481" width="95.481" id="textblock"><g><svg viewBox="0 0 95.481 95.481" height="95.481" width="95.481"><g><svg viewBox="0 0 95.481 95.481" height="95.481" width="95.481"><g><svg xmlns="http://www.w3.org/2000/svg" xmlns:xlink="http://www.w3.org/1999/xlink" version="1.1" x="0" y="0" viewBox="0 0 100 100" enable-background="new 0 0 100 100" xml:space="preserve" height="95.481" width="95.481" class="icon-icon-0" data-fill-palette-color="accent" id="icon-0"><g fill="#3cc4ec" data-fill-palette-color="accent"><g fill="#3cc4ec" data-fill-palette-color="accent"><path d="M92.727 64.732C92.149 62.505 89.838 57.553 85.883 57.553 81.93 57.553 80.381 59.176 76.457 59.176 72.535 59.176 71.289 46.657 65.207 46.657S59.43 56.244 51.978 56.244C35.833 56.244 41.64 39.49 29.933 39.49S20.668 60.5 5 64.71" fill="#3cc4ec" data-fill-palette-color="accent"></path></g><g fill="#3cc4ec" data-fill-palette-color="accent"><g fill="#3cc4ec" data-fill-palette-color="accent"><g fill="#3cc4ec" data-fill-palette-color="accent"><path fill="none" stroke="#3cc4ec" stroke-miterlimit="10" d="M93.336 54.078A10 10 0 0 0 93.027 53.685"></path><path fill="none" stroke="#3cc4ec" stroke-miterlimit="10" stroke-dasharray="0.9939,0.9939" d="M92.358 52.953C91.232 51.847 89.77 51.006 87.98 51.006 83.923 51.006 82.334 52.42 78.31 52.42 74.285 52.42 73.005 41.512 66.767 41.512S60.839 49.866 53.197 49.866C36.633 49.866 42.592 35.267 30.58 35.267 18.803 35.267 21.553 51.039 5.944 56.905"></path><path fill="none" stroke="#3cc4ec" stroke-miterlimit="10" d="M5.475 57.077C5.318 57.132 5.16 57.187 5 57.24"></path><g fill="#3cc4ec" data-fill-palette-color="accent"><polygon points="95.067,52.274 95,57.26 90.717,54.709      " fill="#3cc4ec" data-fill-palette-color="accent"></polygon></g></g></g></g></g></svg></g></svg></g></svg></g></svg></g></svg></g><g></g></svg></g><defs></defs></svg><rect width="95.481" height="95.481" fill="none" stroke="none" visibility="hidden"></rect></g></svg></g></svg>