<svg xmlns="http://www.w3.org/2000/svg" version="1.1" xmlns:xlink="http://www.w3.org/1999/xlink" xmlns:svgjs="http://svgjs.dev/svgjs" width="2000" height="1500" viewBox="0 0 2000 1500"><rect width="2000" height="1500" fill="#92daf2"></rect><g transform="matrix(0.75,0,0,0.75,249.63767768705372,58.90282258064508)"><svg viewBox="0 0 270 248" data-background-color="#92daf2" preserveAspectRatio="xMidYMid meet" height="1837" width="2000" xmlns="http://www.w3.org/2000/svg" xmlns:xlink="http://www.w3.org/1999/xlink"><g id="tight-bounds" transform="matrix(1,0,0,1,0.0652180163303342,0.4000000000000057)"><svg viewBox="0 0 269.86956396733933 247.2" height="247.2" width="269.86956396733933"><g><svg viewBox="0 0 395.52 362.295557018919" height="247.2" width="269.86956396733933"><g transform="matrix(1,0,0,1,0,259.85849738787374)"><svg viewBox="0 0 395.52 102.43705963104523" height="102.43705963104523" width="395.52"><g id="textblocktransform"><svg viewBox="0 0 395.52 102.43705963104523" height="102.43705963104523" width="395.52" id="textblock"><g><svg viewBox="0 0 395.52 66.76551534585433" height="66.76551534585433" width="395.52"><g transform="matrix(1,0,0,1,0,0)"><svg width="395.52" viewBox="3.49 -35.5 213.16 35.99" height="66.76551534585433" data-palette-color="#04140c"><path d="M23.19-8.11L23.19-8.11Q23.19-6.32 22.52-4.76 21.85-3.2 20.68-2.03 19.51-0.85 17.94-0.18 16.38 0.49 14.6 0.49L14.6 0.49 12.11 0.49Q10.33 0.49 8.75-0.18 7.18-0.85 6.01-2.03 4.83-3.2 4.16-4.76 3.49-6.32 3.49-8.11L3.49-8.11 3.49-26.9Q3.49-28.69 4.16-30.25 4.83-31.81 6.01-32.98 7.18-34.16 8.75-34.83 10.33-35.5 12.11-35.5L12.11-35.5 14.6-35.5Q16.38-35.5 17.94-34.83 19.51-34.16 20.68-32.98 21.85-31.81 22.52-30.25 23.19-28.69 23.19-26.9L23.19-26.9 23.19-25.49 20.04-25 20.04-26.9Q20.04-28.08 19.6-29.09 19.17-30.1 18.41-30.86 17.65-31.62 16.64-32.06 15.63-32.5 14.45-32.5L14.45-32.5 12.26-32.5Q11.08-32.5 10.07-32.06 9.06-31.62 8.29-30.86 7.52-30.1 7.08-29.09 6.64-28.08 6.64-26.9L6.64-26.9 6.64-8.11Q6.64-6.93 7.08-5.92 7.52-4.91 8.29-4.14 9.06-3.37 10.07-2.93 11.08-2.49 12.26-2.49L12.26-2.49 14.45-2.49Q15.63-2.49 16.64-2.93 17.65-3.37 18.41-4.14 19.17-4.91 19.6-5.92 20.04-6.93 20.04-8.11L20.04-8.11 20.04-10.01 23.19-9.5 23.19-8.11ZM45.9 0L44.89 0 43.23-2.49Q42.21-1.15 40.67-0.33 39.13 0.49 37.3 0.49L37.3 0.49 36.55 0.49Q35.03 0.49 33.69-0.09 32.35-0.66 31.35-1.66 30.34-2.66 29.77-4 29.2-5.35 29.2-6.86L29.2-6.86 29.2-7.1Q29.2-8.62 29.77-9.96 30.34-11.3 31.35-12.3 32.35-13.31 33.69-13.88 35.03-14.45 36.55-14.45L36.55-14.45 42.89-14.45 42.89-18.31Q42.89-19.21 42.55-20.01 42.21-20.8 41.62-21.39 41.04-21.97 40.24-22.31 39.45-22.66 38.55-22.66L38.55-22.66 36.79-22.66Q35.89-22.66 35.09-22.31 34.3-21.97 33.71-21.39 33.13-20.8 32.79-20.01 32.44-19.21 32.44-18.31L32.44-18.31 32.44-17.41 29.44-17.9 29.44-18.14Q29.44-19.65 30.01-21 30.59-22.34 31.59-23.34 32.59-24.34 33.93-24.91 35.28-25.49 36.79-25.49L36.79-25.49 38.55-25.49Q40.06-25.49 41.4-24.91 42.75-24.34 43.75-23.34 44.75-22.34 45.32-21 45.9-19.65 45.9-18.14L45.9-18.14 45.9 0ZM42.89-6.69L42.89-12.11 36.55-12.11Q35.64-12.11 34.85-11.77 34.06-11.43 33.47-10.83 32.88-10.23 32.54-9.44 32.2-8.64 32.2-7.74L32.2-7.74 32.2-6.69Q32.2-5.79 32.54-4.99 32.88-4.2 33.47-3.61 34.06-3.03 34.85-2.69 35.64-2.34 36.55-2.34L36.55-2.34 38.55-2.34Q39.45-2.34 40.24-2.69 41.04-3.03 41.62-3.61 42.21-4.2 42.55-4.99 42.89-5.79 42.89-6.69L42.89-6.69ZM62.25-22.14L59.25-22.14Q58.34-22.14 57.55-21.8 56.76-21.46 56.17-20.87 55.59-20.29 55.24-19.49 54.9-18.7 54.9-17.8L54.9-17.8 54.9 0 51.9 0 51.9-25 52.9-25 54.54-22.46Q55.56-23.85 57.11-24.67 58.66-25.49 60.49-25.49L60.49-25.49 62.25-25.49 62.25-22.14ZM82.95-6.86L82.95-6.86Q82.95-5.35 82.38-4 81.8-2.66 80.8-1.66 79.8-0.66 78.46-0.09 77.12 0.49 75.6 0.49L75.6 0.49 73.6 0.49Q72.09 0.49 70.74-0.09 69.4-0.66 68.4-1.66 67.4-2.66 66.83-4 66.25-5.35 66.25-6.86L66.25-6.86 66.25-18.14Q66.25-19.65 66.83-21 67.4-22.34 68.4-23.34 69.4-24.34 70.74-24.91 72.09-25.49 73.6-25.49L73.6-25.49 75.6-25.49Q77.12-25.49 78.46-24.91 79.8-24.34 80.8-23.34 81.8-22.34 82.38-21 82.95-19.65 82.95-18.14L82.95-18.14 82.95-12.26 69.26-12.26 69.26-6.69Q69.26-5.79 69.6-4.99 69.94-4.2 70.52-3.61 71.11-3.03 71.9-2.69 72.7-2.34 73.6-2.34L73.6-2.34 75.6-2.34Q76.51-2.34 77.3-2.69 78.09-3.03 78.68-3.61 79.26-4.2 79.61-4.99 79.95-5.79 79.95-6.69L79.95-6.69 79.95-8.35 82.95-7.86 82.95-6.86ZM79.95-14.6L79.95-18.31Q79.95-19.21 79.61-20.01 79.26-20.8 78.68-21.39 78.09-21.97 77.3-22.31 76.51-22.66 75.6-22.66L75.6-22.66 73.6-22.66Q72.7-22.66 71.9-22.31 71.11-21.97 70.52-21.39 69.94-20.8 69.6-20.01 69.26-19.21 69.26-18.31L69.26-18.31 69.26-14.6 79.95-14.6ZM105.65-6.86L105.65-6.86Q105.65-5.35 105.08-4 104.51-2.66 103.51-1.66 102.5-0.66 101.16-0.09 99.82 0.49 98.31 0.49L98.31 0.49 96.3 0.49Q94.79 0.49 93.45-0.09 92.1-0.66 91.1-1.66 90.1-2.66 89.53-4 88.95-5.35 88.95-6.86L88.95-6.86 88.95-18.14Q88.95-19.65 89.53-21 90.1-22.34 91.1-23.34 92.1-24.34 93.45-24.91 94.79-25.49 96.3-25.49L96.3-25.49 98.31-25.49Q99.82-25.49 101.16-24.91 102.5-24.34 103.51-23.34 104.51-22.34 105.08-21 105.65-19.65 105.65-18.14L105.65-18.14 105.65-12.26 91.96-12.26 91.96-6.69Q91.96-5.79 92.3-4.99 92.64-4.2 93.23-3.61 93.81-3.03 94.61-2.69 95.4-2.34 96.3-2.34L96.3-2.34 98.31-2.34Q99.21-2.34 100-2.69 100.8-3.03 101.38-3.61 101.97-4.2 102.31-4.99 102.65-5.79 102.65-6.69L102.65-6.69 102.65-8.35 105.65-7.86 105.65-6.86ZM102.65-14.6L102.65-18.31Q102.65-19.21 102.31-20.01 101.97-20.8 101.38-21.39 100.8-21.97 100-22.31 99.21-22.66 98.31-22.66L98.31-22.66 96.3-22.66Q95.4-22.66 94.61-22.31 93.81-21.97 93.23-21.39 92.64-20.8 92.3-20.01 91.96-19.21 91.96-18.31L91.96-18.31 91.96-14.6 102.65-14.6ZM122.01-22.14L119.01-22.14Q118.1-22.14 117.31-21.8 116.52-21.46 115.93-20.87 115.34-20.29 115-19.49 114.66-18.7 114.66-17.8L114.66-17.8 114.66 0 111.66 0 111.66-25 112.66-25 114.29-22.46Q115.32-23.85 116.87-24.67 118.42-25.49 120.25-25.49L120.25-25.49 122.01-25.49 122.01-22.14ZM126.77-35.01L134.51-7.69 134.6-6.4 134.7-7.69 142.47-35.01 145.71-35.01 135.41 0 133.75 0 123.5-35.01 126.77-35.01ZM165.09 0L164.09 0 162.43-2.49Q161.41-1.15 159.87-0.33 158.33 0.49 156.5 0.49L156.5 0.49 155.74 0.49Q154.23 0.49 152.89-0.09 151.55-0.66 150.54-1.66 149.54-2.66 148.97-4 148.4-5.35 148.4-6.86L148.4-6.86 148.4-7.1Q148.4-8.62 148.97-9.96 149.54-11.3 150.54-12.3 151.55-13.31 152.89-13.88 154.23-14.45 155.74-14.45L155.74-14.45 162.09-14.45 162.09-18.31Q162.09-19.21 161.75-20.01 161.41-20.8 160.82-21.39 160.24-21.97 159.44-22.31 158.65-22.66 157.75-22.66L157.75-22.66 155.99-22.66Q155.09-22.66 154.29-22.31 153.5-21.97 152.91-21.39 152.33-20.8 151.98-20.01 151.64-19.21 151.64-18.31L151.64-18.31 151.64-17.41 148.64-17.9 148.64-18.14Q148.64-19.65 149.21-21 149.79-22.34 150.79-23.34 151.79-24.34 153.13-24.91 154.47-25.49 155.99-25.49L155.99-25.49 157.75-25.49Q159.26-25.49 160.6-24.91 161.95-24.34 162.95-23.34 163.95-22.34 164.52-21 165.09-19.65 165.09-18.14L165.09-18.14 165.09 0ZM162.09-6.69L162.09-12.11 155.74-12.11Q154.84-12.11 154.05-11.77 153.25-11.43 152.67-10.83 152.08-10.23 151.74-9.44 151.4-8.64 151.4-7.74L151.4-7.74 151.4-6.69Q151.4-5.79 151.74-4.99 152.08-4.2 152.67-3.61 153.25-3.03 154.05-2.69 154.84-2.34 155.74-2.34L155.74-2.34 157.75-2.34Q158.65-2.34 159.44-2.69 160.24-3.03 160.82-3.61 161.41-4.2 161.75-4.99 162.09-5.79 162.09-6.69L162.09-6.69ZM187.8 0L186.8 0 185.14-2.54Q184.11-1.15 182.57-0.33 181.03 0.49 179.2 0.49L179.2 0.49 178.45 0.49Q176.93 0.49 175.59-0.09 174.25-0.66 173.25-1.66 172.25-2.66 171.67-4 171.1-5.35 171.1-6.86L171.1-6.86 171.1-25 174.1-25 174.1-6.69Q174.1-5.79 174.44-4.99 174.78-4.2 175.37-3.61 175.96-3.03 176.75-2.69 177.54-2.34 178.45-2.34L178.45-2.34 180.45-2.34Q181.35-2.34 182.15-2.69 182.94-3.03 183.52-3.61 184.11-4.2 184.45-4.99 184.79-5.79 184.79-6.69L184.79-6.69 184.79-25 187.8-25 187.8 0ZM197.8 0L194.8 0 194.8-35.01 197.8-35.01 197.8 0ZM216.65 0L213.92 0Q212.55 0 211.34-0.51 210.13-1.03 209.24-1.93 208.35-2.83 207.82-4.03 207.3-5.22 207.3-6.59L207.3-6.59 207.3-22.14 202.81-22.14 202.81-25 207.3-25 207.3-31.01 210.3-31.49 210.3-25 216.65-25 216.65-22.14 210.3-22.14 210.3-6.45Q210.3-5.69 210.58-5.04 210.86-4.39 211.35-3.91 211.84-3.42 212.5-3.14 213.16-2.86 213.92-2.86L213.92-2.86 216.65-2.86 216.65 0Z" opacity="1" transform="matrix(1,0,0,1,0,0)" fill="#04140c" class="wordmark-text-0" data-fill-palette-color="primary" id="text-0"></path></svg></g></svg></g><g transform="matrix(1,0,0,1,75.54432,82.52725114664223)"><svg viewBox="0 0 244.43135999999998 19.909808484402994" height="19.909808484402994" width="244.43135999999998"><g transform="matrix(1,0,0,1,0,0)"><svg width="244.43135999999998" viewBox="2.25 -35.16 531.34 43.29" height="19.909808484402994" data-palette-color="#548ca4"><path d="M16.92-3.13L16.92 0 2.25 0 2.25-34.86 16.92-34.86 16.92-31.74 5.64-31.74 5.64-19.14 16.16-19.14 16.16-16.02 5.64-16.02 5.64-3.13 16.92-3.13ZM23.29-19.19L23.29 0 20.14 0 20.14-23.75 23.29-23.75 23.29-21.53 23.9-21.53Q24.73-22.83 25.84-23.45 26.95-24.07 28.9-24.07L28.9-24.07Q32.83-24.07 33.74-21.34L33.74-21.34 34.4-21.34Q35.2-22.61 36.45-23.34 37.69-24.07 39.65-24.07L39.65-24.07Q42.26-24.07 43.55-22.86 44.85-21.66 44.85-18.82L44.85-18.82 44.85 0 41.72 0 41.72-19.09Q41.67-20.31 40.96-20.86 40.26-21.41 38.62-21.41L38.62-21.41Q35.37-21.41 34.1-19.12L34.1-19.12 34.1 0 30.98 0 30.98-19.09Q30.93-20.31 30.22-20.86 29.51-21.41 27.93-21.41L27.93-21.41Q24.46-21.41 23.29-19.19L23.29-19.19ZM52.44-2.25L52.44 7.91 49.29 7.91 49.29-23.75 52.44-23.75 52.44-21.53 53.12-21.53Q53.95-22.83 55.11-23.45 56.27-24.07 58.3-24.07L58.3-24.07Q61.08-24.07 62.41-22.86 63.74-21.66 63.81-18.82L63.81-18.82Q63.89-17.58 63.91-15.81 63.94-14.04 63.94-12.07 63.94-10.11 63.91-8.25 63.89-6.4 63.81-4.96L63.81-4.96Q63.74-2.15 62.35-0.93 60.96 0.29 58.17 0.29L58.17 0.29Q56.34 0.29 55.17-0.31 54-0.9 53.12-2.25L53.12-2.25 52.44-2.25ZM57.29-2.37L57.29-2.37Q60.59-2.37 60.69-4.69L60.69-4.69Q60.88-8.47 60.85-12.16 60.81-15.84 60.69-19.09L60.69-19.09Q60.64-20.31 59.91-20.86 59.17-21.41 57.44-21.41L57.44-21.41Q53.71-21.41 52.44-19.19L52.44-19.19 52.44-4.59Q53.1-3.39 54.23-2.88 55.37-2.37 57.29-2.37ZM75.33 0.29L75.33 0.29Q71.35 0.29 69.72-1.07 68.08-2.44 67.96-5.62L67.96-5.62Q67.81-7.42 67.77-9.63 67.72-11.84 67.77-14.09 67.81-16.33 67.96-18.16L67.96-18.16Q68.08-21.34 69.73-22.71 71.38-24.07 75.33-24.07L75.33-24.07Q79.34-24.07 80.94-22.71 82.54-21.34 82.66-18.16L82.66-18.16Q82.81-16.36 82.85-14.15 82.9-11.94 82.85-9.7 82.81-7.47 82.66-5.62L82.66-5.62Q82.54-2.47 80.94-1.09 79.34 0.29 75.33 0.29ZM75.33-2.44L75.33-2.44Q77.58-2.44 78.53-2.99 79.48-3.54 79.56-4.81L79.56-4.81Q79.8-8.62 79.8-11.89 79.8-15.16 79.56-18.97L79.56-18.97Q79.48-20.26 78.56-20.8 77.63-21.34 75.33-21.34L75.33-21.34Q73.04-21.34 72.1-20.8 71.16-20.26 71.09-18.97L71.09-18.97Q70.87-15.16 70.85-11.88 70.84-8.59 71.09-4.81L71.09-4.81Q71.14-3.54 72.12-2.99 73.11-2.44 75.33-2.44ZM95.4-9.18L94.57 0 88.44 0 85.56-23.75 88.61-23.75 89.81-11.82 90.71-2.71 92.23-2.71 92.91-11.82 94.23-23.68 100.48-23.68 101.75-11.82 102.46-2.71 103.97-2.71 104.92-11.82 106.12-23.75 109.27-23.75 106.22 0 100.09 0 99.28-9.18 98.21-21 96.47-21 95.4-9.18ZM119.67 0.29L119.67 0.29Q115.64 0.29 113.92-0.98 112.19-2.25 112.07-5.13L112.07-5.13Q111.97-6.93 111.94-9.38 111.9-11.82 111.94-14.28 111.97-16.75 112.07-18.58L112.07-18.58Q112.19-21.53 113.96-22.8 115.73-24.07 119.67-24.07L119.67-24.07Q123.38-24.07 125.04-22.83 126.7-21.58 126.87-18.73L126.87-18.73Q126.92-17.87 126.97-15.75 127.01-13.62 126.82-11.23L126.82-11.23 115.12-11.23Q115.12-9.69 115.15-8.11 115.17-6.52 115.25-4.81L115.25-4.81Q115.27-3.47 116.27-2.95 117.27-2.44 119.57-2.44L119.57-2.44Q121.84-2.44 122.77-2.95 123.69-3.47 123.79-4.81L123.79-4.81Q123.86-6.15 123.79-8.47L123.79-8.47 126.82-8.47Q126.94-7.76 126.93-6.82 126.92-5.88 126.87-5.13L126.87-5.13Q126.7-2.25 125.12-0.98 123.55 0.29 119.67 0.29ZM115.12-13.82L115.12-13.82 123.84-13.82Q123.89-15.48 123.89-16.99 123.89-18.51 123.79-19.07L123.79-19.07Q123.69-20.29 122.74-20.81 121.79-21.34 119.67-21.34L119.67-21.34Q117.3-21.34 116.28-20.81 115.27-20.29 115.25-19.07L115.25-19.07Q115.17-17.65 115.14-16.36 115.1-15.06 115.12-13.82ZM134.19-19.19L134.19 0 131.04 0 131.04-23.75 134.19-23.75 134.19-21.53 134.87-21.53Q135.51-22.75 136.56-23.41 137.61-24.07 139.17-24.07L139.17-24.07Q141.51-24.07 142.65-22.84 143.78-21.61 143.78-18.58L143.78-18.58Q143.78-17.92 143.74-17.02 143.69-16.11 143.59-15.41L143.59-15.41 140.56-15.41Q140.61-15.65 140.62-16.26 140.63-16.87 140.65-17.48 140.66-18.09 140.66-18.31L140.66-18.31Q140.66-20.12 140.05-20.76 139.44-21.41 138.1-21.41L138.1-21.41Q135.24-21.41 134.19-19.19L134.19-19.19ZM151.28-31.69L151.28-28.17 148.13-28.17 148.13-31.69 151.28-31.69ZM151.28-23.75L151.28 0 148.1 0 148.1-23.75 151.28-23.75ZM159.57-19.19L159.57 0 156.43 0 156.43-23.75 159.57-23.75 159.57-21.53 160.33-21.53Q161.09-22.75 162.32-23.41 163.55-24.07 165.43-24.07L165.43-24.07Q168.19-24.07 169.54-22.86 170.88-21.66 170.88-18.82L170.88-18.82 170.88 0 167.75 0 167.75-19.09Q167.75-20.31 166.98-20.86 166.22-21.41 164.51-21.41L164.51-21.41Q162.8-21.41 161.5-20.83 160.21-20.24 159.57-19.19L159.57-19.19ZM182.01 6.86L182.01 6.86Q178.69 6.86 176.66 6.03 174.64 5.2 174.51 3.42L174.51 3.42Q174.51 3.22 174.49 2.95 174.46 2.69 174.46 2.39L174.46 2.39Q174.56 1.32 175.55 0.66 176.54 0 177.83-0.15L177.83-0.15 177.83-0.76Q175.42-1.27 175.34-2.86L175.34-2.86Q175.32-3.27 175.34-3.69L175.34-3.69Q175.37-4.52 176.11-5.08 176.86-5.64 177.79-5.74L177.79-5.74 177.79-6.35Q175.25-7.45 175.08-11.21L175.08-11.21Q175-12.67 174.97-13.76 174.93-14.84 174.95-15.95 174.98-17.07 175.08-18.58L175.08-18.58Q175.2-21.48 176.77-22.78 178.35-24.07 181.81-24.07L181.81-24.07Q184.35-24.07 185.84-23.49 187.33-22.9 187.99-21.66L187.99-21.66 188.67-21.66Q188.84-23.75 191.82-23.75L191.82-23.75 191.82-21.02 190.97-21.02Q188.8-21.02 188.7-18.51L188.7-18.51 188.65-16.58Q188.7-15.16 188.7-14.01 188.7-12.87 188.55-11.21L188.55-11.21Q188.43-8.25 186.89-6.98 185.35-5.71 181.81-5.71L181.81-5.71Q179.76-5.74 178.83-5.4 177.91-5.05 177.91-4.27L177.91-4.27 177.91-4.08Q177.96-3.37 178.93-3.08 179.91-2.78 182.18-2.73L182.18-2.73Q185.82-2.64 187.76-1.7 189.7-0.76 189.87 1.42L189.87 1.42 189.87 2.69Q189.7 4.98 187.53 5.92 185.35 6.86 182.01 6.86ZM181.81-8.47L181.81-8.47Q183.77-8.47 184.58-9.01 185.4-9.55 185.48-10.77L185.48-10.77Q185.6-12.5 185.6-14.81 185.6-17.11 185.48-19.02L185.48-19.02Q185.4-20.31 184.57-20.83 183.74-21.34 181.81-21.34L181.81-21.34Q179.88-21.34 179.05-20.81 178.22-20.29 178.13-18.99L178.13-18.99Q177.86-14.36 178.13-10.82L178.13-10.82Q178.22-9.62 179.08-9.05 179.93-8.47 181.81-8.47ZM182.08 4.27L182.08 4.27Q184.18 4.27 185.51 3.88 186.84 3.49 186.94 2.49L186.94 2.49Q186.96 2.22 186.95 1.99 186.94 1.76 186.94 1.51L186.94 1.51Q186.84 0.46 185.54 0.16 184.23-0.15 182.08-0.2L182.08-0.2Q180.01-0.24 178.77 0.12 177.54 0.49 177.42 1.54L177.42 1.54 177.42 2.49Q177.54 3.56 178.79 3.92 180.03 4.27 182.08 4.27ZM213.13-9.01L213.13 0 209.69 0 209.69-9.06 202.56-34.86 206.1-34.86 208.79-25.24 210.91-14.26 212.01-14.26 214.01-25.24 216.7-34.86 220.29-34.86 213.13-9.01ZM230.66 0.29L230.66 0.29Q226.68 0.29 225.04-1.07 223.41-2.44 223.29-5.62L223.29-5.62Q223.14-7.42 223.09-9.63 223.04-11.84 223.09-14.09 223.14-16.33 223.29-18.16L223.29-18.16Q223.41-21.34 225.06-22.71 226.7-24.07 230.66-24.07L230.66-24.07Q234.66-24.07 236.26-22.71 237.86-21.34 237.98-18.16L237.98-18.16Q238.13-16.36 238.18-14.15 238.23-11.94 238.18-9.7 238.13-7.47 237.98-5.62L237.98-5.62Q237.86-2.47 236.26-1.09 234.66 0.29 230.66 0.29ZM230.66-2.44L230.66-2.44Q232.9-2.44 233.86-2.99 234.81-3.54 234.88-4.81L234.88-4.81Q235.13-8.62 235.13-11.89 235.13-15.16 234.88-18.97L234.88-18.97Q234.81-20.26 233.88-20.8 232.95-21.34 230.66-21.34L230.66-21.34Q228.36-21.34 227.42-20.8 226.48-20.26 226.41-18.97L226.41-18.97Q226.19-15.16 226.18-11.88 226.17-8.59 226.41-4.81L226.41-4.81Q226.46-3.54 227.45-2.99 228.44-2.44 230.66-2.44ZM247.75 0.29L247.75 0.29Q245.01 0.29 243.63-0.93 242.25-2.15 242.25-4.96L242.25-4.96 242.25-23.75 245.38-23.75 245.38-4.69Q245.38-3.49 246.13-2.93 246.89-2.37 248.6-2.37L248.6-2.37Q250.33-2.37 251.64-2.95 252.95-3.54 253.56-4.59L253.56-4.59 253.56-23.75 256.73-23.75 256.73 0 253.56 0 253.56-2.25 252.9-2.25Q251.29 0.29 247.75 0.29ZM264.52-19.19L264.52 0 261.37 0 261.37-23.75 264.52-23.75 264.52-21.53 265.2-21.53Q265.83-22.75 266.88-23.41 267.93-24.07 269.5-24.07L269.5-24.07Q271.84-24.07 272.98-22.84 274.11-21.61 274.11-18.58L274.11-18.58Q274.11-17.92 274.06-17.02 274.01-16.11 273.92-15.41L273.92-15.41 270.89-15.41Q270.94-15.65 270.95-16.26 270.96-16.87 270.97-17.48 270.99-18.09 270.99-18.31L270.99-18.31Q270.99-20.12 270.38-20.76 269.76-21.41 268.42-21.41L268.42-21.41Q265.57-21.41 264.52-19.19L264.52-19.19ZM295.96 0.32L295.96 0.32Q291.49 0.32 289.56-1.12 287.63-2.56 287.51-5.88L287.51-5.88Q287.07-17.43 287.51-28.98L287.51-28.98Q287.63-32.01 289.58-33.58 291.54-35.16 295.91-35.16L295.91-35.16Q300.42-35.16 302.49-33.72 304.55-32.28 304.65-28.96L304.65-28.96Q304.7-28.15 304.7-26.97 304.7-25.78 304.66-24.6 304.62-23.41 304.6-22.58L304.6-22.58 301.21-22.58Q301.25-24.17 301.27-26.05 301.28-27.93 301.21-29.52L301.21-29.52Q301.18-30.98 300-31.62 298.81-32.25 295.91-32.25L295.91-32.25Q293.25-32.25 292.11-31.62 290.98-30.98 290.9-29.52L290.9-29.52Q290.51-17.43 290.9-5.32L290.9-5.32Q290.98-3.88 292.11-3.23 293.25-2.59 295.96-2.59L295.96-2.59Q299.01-2.59 300.24-3.23 301.47-3.88 301.55-5.32L301.55-5.32Q301.62-7.03 301.56-9 301.5-10.96 301.42-12.67L301.42-12.67 304.89-12.67Q305.01-10.96 305.04-9.29 305.06-7.62 304.94-5.88L304.94-5.88Q304.79-2.56 302.71-1.12 300.62 0.32 295.96 0.32ZM314.39 0.27L314.39 0.27Q311.41 0.27 309.98-0.9 308.55-2.08 308.31-4.57L308.31-4.57Q308.28-5.05 308.25-5.54 308.21-6.03 308.26-6.49L308.26-6.49Q308.43-8.67 309.63-10.14 310.82-11.62 314.17-12.84L314.17-12.84Q315.53-13.33 317.05-13.72 318.56-14.11 320.05-14.48L320.05-14.48 320.05-18.99Q320.05-20.19 319.15-20.76 318.24-21.34 316-21.34L316-21.34Q314.04-21.34 313.03-20.85 312.02-20.36 311.92-19.07L311.92-19.07Q311.87-18.46 311.87-17.32 311.87-16.19 311.92-15.41L311.92-15.41 308.87-15.41Q308.82-16.02 308.77-16.99 308.72-17.97 308.8-18.73L308.8-18.73Q308.92-21.56 310.64-22.81 312.36-24.07 316.12-24.07L316.12-24.07Q320.05-24.07 321.58-22.71 323.1-21.34 323.13-18.21L323.13-18.21 323.13 0 320.05 0 320.05-2.25 319.37-2.25Q318.76-1.03 317.62-0.38 316.49 0.27 314.39 0.27ZM315.17-2.37L315.17-2.37Q318.68-2.37 320.03-4.47L320.03-4.47 320.03-11.87Q318.85-11.62 317.62-11.29 316.39-10.96 314.73-10.4L314.73-10.4Q312.75-9.67 312.09-8.72 311.43-7.76 311.33-6.49L311.33-6.49Q311.36-6.13 311.37-5.7 311.38-5.27 311.43-4.81L311.43-4.81Q311.6-3.64 312.6-3 313.6-2.37 315.17-2.37ZM330.84-19.19L330.84 0 327.69 0 327.69-23.75 330.84-23.75 330.84-21.53 331.52-21.53Q332.16-22.75 333.21-23.41 334.26-24.07 335.82-24.07L335.82-24.07Q338.16-24.07 339.3-22.84 340.43-21.61 340.43-18.58L340.43-18.58Q340.43-17.92 340.38-17.02 340.34-16.11 340.24-15.41L340.24-15.41 337.21-15.41Q337.26-15.65 337.27-16.26 337.28-16.87 337.3-17.48 337.31-18.09 337.31-18.31L337.31-18.31Q337.31-20.12 336.7-20.76 336.09-21.41 334.75-21.41L334.75-21.41Q331.89-21.41 330.84-19.19L330.84-19.19ZM351.52 0.29L351.52 0.29Q347.49 0.29 345.77-0.98 344.04-2.25 343.92-5.13L343.92-5.13Q343.82-6.93 343.79-9.38 343.75-11.82 343.79-14.28 343.82-16.75 343.92-18.58L343.92-18.58Q344.04-21.53 345.81-22.8 347.58-24.07 351.52-24.07L351.52-24.07Q355.23-24.07 356.89-22.83 358.55-21.58 358.72-18.73L358.72-18.73Q358.77-17.87 358.81-15.75 358.86-13.62 358.67-11.23L358.67-11.23 346.97-11.23Q346.97-9.69 347-8.11 347.02-6.52 347.1-4.81L347.1-4.81Q347.12-3.47 348.12-2.95 349.12-2.44 351.42-2.44L351.42-2.44Q353.69-2.44 354.62-2.95 355.54-3.47 355.64-4.81L355.64-4.81Q355.71-6.15 355.64-8.47L355.64-8.47 358.67-8.47Q358.79-7.76 358.78-6.82 358.77-5.88 358.72-5.13L358.72-5.13Q358.55-2.25 356.97-0.98 355.4 0.29 351.52 0.29ZM346.97-13.82L346.97-13.82 355.69-13.82Q355.74-15.48 355.74-16.99 355.74-18.51 355.64-19.07L355.64-19.07Q355.54-20.29 354.59-20.81 353.64-21.34 351.52-21.34L351.52-21.34Q349.15-21.34 348.13-20.81 347.12-20.29 347.1-19.07L347.1-19.07Q347.02-17.65 346.99-16.36 346.95-15.06 346.97-13.82ZM370.16 0.29L370.16 0.29Q366.14 0.29 364.42-0.98 362.69-2.25 362.57-5.13L362.57-5.13Q362.47-6.93 362.44-9.38 362.4-11.82 362.44-14.28 362.47-16.75 362.57-18.58L362.57-18.58Q362.69-21.53 364.46-22.8 366.23-24.07 370.16-24.07L370.16-24.07Q373.88-24.07 375.54-22.83 377.2-21.58 377.37-18.73L377.37-18.73Q377.42-17.87 377.46-15.75 377.51-13.62 377.32-11.23L377.32-11.23 365.62-11.23Q365.62-9.69 365.65-8.11 365.67-6.52 365.75-4.81L365.75-4.81Q365.77-3.47 366.77-2.95 367.77-2.44 370.07-2.44L370.07-2.44Q372.34-2.44 373.27-2.95 374.19-3.47 374.29-4.81L374.29-4.81Q374.36-6.15 374.29-8.47L374.29-8.47 377.32-8.47Q377.44-7.76 377.43-6.82 377.42-5.88 377.37-5.13L377.37-5.13Q377.2-2.25 375.62-0.98 374.05 0.29 370.16 0.29ZM365.62-13.82L365.62-13.82 374.34-13.82Q374.39-15.48 374.39-16.99 374.39-18.51 374.29-19.07L374.29-19.07Q374.19-20.29 373.24-20.81 372.29-21.34 370.16-21.34L370.16-21.34Q367.8-21.34 366.78-20.81 365.77-20.29 365.75-19.07L365.75-19.07Q365.67-17.65 365.64-16.36 365.6-15.06 365.62-13.82ZM384.69-19.19L384.69 0 381.54 0 381.54-23.75 384.69-23.75 384.69-21.53 385.37-21.53Q386.01-22.75 387.06-23.41 388.11-24.07 389.67-24.07L389.67-24.07Q392.01-24.07 393.15-22.84 394.28-21.61 394.28-18.58L394.28-18.58Q394.28-17.92 394.23-17.02 394.19-16.11 394.09-15.41L394.09-15.41 391.06-15.41Q391.11-15.65 391.12-16.26 391.13-16.87 391.15-17.48 391.16-18.09 391.16-18.31L391.16-18.31Q391.16-20.12 390.55-20.76 389.94-21.41 388.59-21.41L388.59-21.41Q385.74-21.41 384.69-19.19L384.69-19.19ZM415.03 0.32L415.03 0.32Q410.61 0.32 408.78-1.14 406.95-2.59 406.8-5.93L406.8-5.93Q406.66-9.3 406.8-12.7L406.8-12.7 410.1-12.7Q410-10.99 410-9.02 410-7.06 410.1-5.37L410.1-5.37Q410.22-3.96 411.32-3.28 412.42-2.61 415.03-2.61L415.03-2.61Q417.57-2.61 418.69-3.28 419.82-3.96 419.82-5.37L419.82-5.37 419.82-34.86 423.21-34.86 423.21-5.93Q423.21-2.59 421.34-1.14 419.47 0.32 415.03 0.32ZM434.56 0.29L434.56 0.29Q430.58 0.29 428.94-1.07 427.31-2.44 427.19-5.62L427.19-5.62Q427.04-7.42 426.99-9.63 426.94-11.84 426.99-14.09 427.04-16.33 427.19-18.16L427.19-18.16Q427.31-21.34 428.96-22.71 430.6-24.07 434.56-24.07L434.56-24.07Q438.56-24.07 440.16-22.71 441.76-21.34 441.88-18.16L441.88-18.16Q442.03-16.36 442.08-14.15 442.13-11.94 442.08-9.7 442.03-7.47 441.88-5.62L441.88-5.62Q441.76-2.47 440.16-1.09 438.56 0.29 434.56 0.29ZM434.56-2.44L434.56-2.44Q436.81-2.44 437.76-2.99 438.71-3.54 438.78-4.81L438.78-4.81Q439.03-8.62 439.03-11.89 439.03-15.16 438.78-18.97L438.78-18.97Q438.71-20.26 437.78-20.8 436.85-21.34 434.56-21.34L434.56-21.34Q432.26-21.34 431.32-20.8 430.38-20.26 430.31-18.97L430.31-18.97Q430.09-15.16 430.08-11.88 430.07-8.59 430.31-4.81L430.31-4.81Q430.36-3.54 431.35-2.99 432.34-2.44 434.56-2.44ZM451.65 0.29L451.65 0.29Q448.91 0.29 447.53-0.93 446.15-2.15 446.15-4.96L446.15-4.96 446.15-23.75 449.28-23.75 449.28-4.69Q449.28-3.49 450.04-2.93 450.79-2.37 452.5-2.37L452.5-2.37Q454.23-2.37 455.54-2.95 456.85-3.54 457.46-4.59L457.46-4.59 457.46-23.75 460.63-23.75 460.63 0 457.46 0 457.46-2.25 456.8-2.25Q455.19 0.29 451.65 0.29ZM468.42-19.19L468.42 0 465.27 0 465.27-23.75 468.42-23.75 468.42-21.53 469.1-21.53Q469.73-22.75 470.78-23.41 471.83-24.07 473.4-24.07L473.4-24.07Q475.74-24.07 476.88-22.84 478.01-21.61 478.01-18.58L478.01-18.58Q478.01-17.92 477.96-17.02 477.91-16.11 477.82-15.41L477.82-15.41 474.79-15.41Q474.84-15.65 474.85-16.26 474.86-16.87 474.87-17.48 474.89-18.09 474.89-18.31L474.89-18.31Q474.89-20.12 474.28-20.76 473.67-21.41 472.32-21.41L472.32-21.41Q469.47-21.41 468.42-19.19L468.42-19.19ZM484.89-19.19L484.89 0 481.74 0 481.74-23.75 484.89-23.75 484.89-21.53 485.65-21.53Q486.41-22.75 487.64-23.41 488.87-24.07 490.75-24.07L490.75-24.07Q493.51-24.07 494.85-22.86 496.2-21.66 496.2-18.82L496.2-18.82 496.2 0 493.07 0 493.07-19.09Q493.07-20.31 492.3-20.86 491.53-21.41 489.83-21.41L489.83-21.41Q488.12-21.41 486.82-20.83 485.53-20.24 484.89-19.19L484.89-19.19ZM507.99 0.29L507.99 0.29Q503.96 0.29 502.24-0.98 500.52-2.25 500.39-5.13L500.39-5.13Q500.3-6.93 500.26-9.38 500.22-11.82 500.26-14.28 500.3-16.75 500.39-18.58L500.39-18.58Q500.52-21.53 502.29-22.8 504.06-24.07 507.99-24.07L507.99-24.07Q511.7-24.07 513.36-22.83 515.02-21.58 515.19-18.73L515.19-18.73Q515.24-17.87 515.29-15.75 515.34-13.62 515.14-11.23L515.14-11.23 503.45-11.23Q503.45-9.69 503.47-8.11 503.49-6.52 503.57-4.81L503.57-4.81Q503.59-3.47 504.59-2.95 505.59-2.44 507.89-2.44L507.89-2.44Q510.16-2.44 511.09-2.95 512.01-3.47 512.11-4.81L512.11-4.81Q512.19-6.15 512.11-8.47L512.11-8.47 515.14-8.47Q515.26-7.76 515.25-6.82 515.24-5.88 515.19-5.13L515.19-5.13Q515.02-2.25 513.44-0.98 511.87 0.29 507.99 0.29ZM503.45-13.82L503.45-13.82 512.16-13.82Q512.21-15.48 512.21-16.99 512.21-18.51 512.11-19.07L512.11-19.07Q512.01-20.29 511.06-20.81 510.11-21.34 507.99-21.34L507.99-21.34Q505.62-21.34 504.61-20.81 503.59-20.29 503.57-19.07L503.57-19.07Q503.49-17.65 503.46-16.36 503.42-15.06 503.45-13.82ZM521.49 8.13L521.49 8.13Q520.7 8.13 519.62 8.06 518.53 7.98 517.82 7.91L517.82 7.91 517.82 5.2Q519.34 5.32 521.39 5.32L521.39 5.32Q523.56 5.32 524.33 4.8 525.1 4.27 525.37 2.95L525.37 2.95 526.07 0 522.78 0 518.38-23.75 521.61-23.75 523.24-12.43 525.12-2.71 526.61-2.71 528.61-12.43 530.35-23.75 533.59-23.75 528.47 2.71Q528 5.59 526.51 6.86 525.03 8.13 521.49 8.13Z" opacity="1" transform="matrix(1,0,0,1,0,0)" fill="#548ca4" class="slogan-text-1" data-fill-palette-color="secondary" id="text-1"></path></svg></g></svg></g></svg></g></svg></g><g transform="matrix(1,0,0,1,83.59248710685102,0)"><svg viewBox="0 0 228.33502578629793 228.33502578629793" height="228.33502578629793" width="228.33502578629793"><g><svg></svg></g><g id="icon-0"><svg viewBox="0 0 228.33502578629793 228.33502578629793" height="228.33502578629793" width="228.33502578629793"><g><path d="M0 114.168c0-63.053 51.115-114.168 114.168-114.168 63.053 0 114.168 51.115 114.167 114.168 0 63.053-51.115 114.168-114.167 114.167-63.053 0-114.168-51.115-114.168-114.167zM114.168 222.314c59.728 0 108.147-48.419 108.146-108.146 0-59.728-48.419-108.147-108.146-108.147-59.728 0-108.147 48.419-108.147 108.147 0 59.728 48.419 108.147 108.147 108.146z" data-fill-palette-color="accent" fill="#3cc4ec" stroke="transparent"></path><ellipse rx="113.02583776421747" ry="113.02583776421747" cx="114.16751289314897" cy="114.16751289314897" fill="#3cc4ec" stroke="transparent" stroke-width="0" fill-opacity="1" data-fill-palette-color="accent"></ellipse></g><g transform="matrix(1,0,0,1,47.177970979428665,47.177970979428665)"><svg viewBox="0 0 133.9790838274406 133.9790838274406" height="133.9790838274406" width="133.9790838274406"><g><svg xmlns="http://www.w3.org/2000/svg" xmlns:xlink="http://www.w3.org/1999/xlink" version="1.1" x="0" y="0" viewBox="0 0 100 100" enable-background="new 0 0 100 100" xml:space="preserve" height="133.9790838274406" width="133.9790838274406" class="icon-dxe-0" data-fill-palette-color="quaternary" id="dxe-0"><g fill="#92daf2" data-fill-palette-color="quaternary"><g fill="#92daf2" data-fill-palette-color="quaternary"><path d="M92.727 64.732C92.149 62.505 89.838 57.553 85.883 57.553 81.93 57.553 80.381 59.176 76.457 59.176 72.535 59.176 71.289 46.657 65.207 46.657S59.43 56.244 51.978 56.244C35.833 56.244 41.64 39.49 29.933 39.49S20.668 60.5 5 64.71" fill="#92daf2" data-fill-palette-color="quaternary"></path></g><g fill="#92daf2" data-fill-palette-color="quaternary"><g fill="#92daf2" data-fill-palette-color="quaternary"><g fill="#92daf2" data-fill-palette-color="quaternary"><path fill="none" stroke="#92daf2" stroke-miterlimit="10" d="M93.336 54.078A10 10 0 0 0 93.027 53.685"></path><path fill="none" stroke="#92daf2" stroke-miterlimit="10" stroke-dasharray="0.9939,0.9939" d="M92.358 52.953C91.232 51.847 89.77 51.006 87.98 51.006 83.923 51.006 82.334 52.42 78.31 52.42 74.285 52.42 73.005 41.512 66.767 41.512S60.839 49.866 53.197 49.866C36.633 49.866 42.592 35.267 30.58 35.267 18.803 35.267 21.553 51.039 5.944 56.905"></path><path fill="none" stroke="#92daf2" stroke-miterlimit="10" d="M5.475 57.077C5.318 57.132 5.16 57.187 5 57.24"></path><g fill="#92daf2" data-fill-palette-color="quaternary"><polygon points="95.067,52.274 95,57.26 90.717,54.709      " fill="#92daf2" data-fill-palette-color="quaternary"></polygon></g></g></g></g></g></svg></g></svg></g></svg></g></svg></g><g></g></svg></g><defs></defs></svg><rect width="269.86956396733933" height="247.2" fill="none" stroke="none" visibility="hidden"></rect></g></svg></g></svg>