<svg xmlns="http://www.w3.org/2000/svg" version="1.1" xmlns:xlink="http://www.w3.org/1999/xlink" xmlns:svgjs="http://svgjs.dev/svgjs" width="2000" height="1500" viewBox="0 0 2000 1500"><rect width="2000" height="1500" fill="#92daf2"></rect><g transform="matrix(0.75,0,0,0.75,249.63767768705372,58.90282258064508)"><svg viewBox="0 0 270 248" data-background-color="#92daf2" preserveAspectRatio="xMidYMid meet" height="1837" width="2000" xmlns="http://www.w3.org/2000/svg" xmlns:xlink="http://www.w3.org/1999/xlink"><g id="tight-bounds" transform="matrix(1,0,0,1,0.0652180163303342,0.4000000000000057)"><svg viewBox="0 0 269.86956396733933 247.2" height="247.2" width="269.86956396733933"><g><svg viewBox="0 0 395.52 362.295557018919" height="247.2" width="269.86956396733933"><g transform="matrix(1,0,0,1,0,259.85849738787374)"><svg viewBox="0 0 395.52 102.43705963104523" height="102.43705963104523" width="395.52"><g id="textblocktransform"><svg viewBox="0 0 395.52 102.43705963104523" height="102.43705963104523" width="395.52" id="textblock"><g><svg viewBox="0 0 395.52 66.76551534585433" height="66.76551534585433" width="395.52"><g transform="matrix(1,0,0,1,0,0)"><svg width="395.52" viewBox="3.49 -35.5 213.16 35.99" height="66.76551534585433" data-palette-color="#04140c"><path d="M23.19-8.11L23.19-8.11Q23.19-6.32 22.52-4.76 21.85-3.2 20.68-2.03 19.51-0.85 17.94-0.18 16.38 0.49 14.6 0.49L14.6 0.49 12.11 0.49Q10.33 0.49 8.75-0.18 7.18-0.85 6.01-2.03 4.83-3.2 4.16-4.76 3.49-6.32 3.49-8.11L3.49-8.11 3.49-26.9Q3.49-28.69 4.16-30.25 4.83-31.81 6.01-32.98 7.18-34.16 8.75-34.83 10.33-35.5 12.11-35.5L12.11-35.5 14.6-35.5Q16.38-35.5 17.94-34.83 19.51-34.16 20.68-32.98 21.85-31.81 22.52-30.25 23.19-28.69 23.19-26.9L23.19-26.9 23.19-25.49 20.04-25 20.04-26.9Q20.04-28.08 19.6-29.09 19.17-30.1 18.41-30.86 17.65-31.62 16.64-32.06 15.63-32.5 14.45-32.5L14.45-32.5 12.26-32.5Q11.08-32.5 10.07-32.06 9.06-31.62 8.29-30.86 7.52-30.1 7.08-29.09 6.64-28.08 6.64-26.9L6.64-26.9 6.64-8.11Q6.64-6.93 7.08-5.92 7.52-4.91 8.29-4.14 9.06-3.37 10.07-2.93 11.08-2.49 12.26-2.49L12.26-2.49 14.45-2.49Q15.63-2.49 16.64-2.93 17.65-3.37 18.41-4.14 19.17-4.91 19.6-5.92 20.04-6.93 20.04-8.11L20.04-8.11 20.04-10.01 23.19-9.5 23.19-8.11ZM45.9 0L44.89 0 43.23-2.49Q42.21-1.15 40.67-0.33 39.13 0.49 37.3 0.49L37.3 0.49 36.55 0.49Q35.03 0.49 33.69-0.09 32.35-0.66 31.35-1.66 30.34-2.66 29.77-4 29.2-5.35 29.2-6.86L29.2-6.86 29.2-7.1Q29.2-8.62 29.77-9.96 30.34-11.3 31.35-12.3 32.35-13.31 33.69-13.88 35.03-14.45 36.55-14.45L36.55-14.45 42.89-14.45 42.89-18.31Q42.89-19.21 42.55-20.01 42.21-20.8 41.62-21.39 41.04-21.97 40.24-22.31 39.45-22.66 38.55-22.66L38.55-22.66 36.79-22.66Q35.89-22.66 35.09-22.31 34.3-21.97 33.71-21.39 33.13-20.8 32.79-20.01 32.44-19.21 32.44-18.31L32.44-18.31 32.44-17.41 29.44-17.9 29.44-18.14Q29.44-19.65 30.01-21 30.59-22.34 31.59-23.34 32.59-24.34 33.93-24.91 35.28-25.49 36.79-25.49L36.79-25.49 38.55-25.49Q40.06-25.49 41.4-24.91 42.75-24.34 43.75-23.34 44.75-22.34 45.32-21 45.9-19.65 45.9-18.14L45.9-18.14 45.9 0ZM42.89-6.69L42.89-12.11 36.55-12.11Q35.64-12.11 34.85-11.77 34.06-11.43 33.47-10.83 32.88-10.23 32.54-9.44 32.2-8.64 32.2-7.74L32.2-7.74 32.2-6.69Q32.2-5.79 32.54-4.99 32.88-4.2 33.47-3.61 34.06-3.03 34.85-2.69 35.64-2.34 36.55-2.34L36.55-2.34 38.55-2.34Q39.45-2.34 40.24-2.69 41.04-3.03 41.62-3.61 42.21-4.2 42.55-4.99 42.89-5.79 42.89-6.69L42.89-6.69ZM62.25-22.14L59.25-22.14Q58.34-22.14 57.55-21.8 56.76-21.46 56.17-20.87 55.59-20.29 55.24-19.49 54.9-18.7 54.9-17.8L54.9-17.8 54.9 0 51.9 0 51.9-25 52.9-25 54.54-22.46Q55.56-23.85 57.11-24.67 58.66-25.49 60.49-25.49L60.49-25.49 62.25-25.49 62.25-22.14ZM82.95-6.86L82.95-6.86Q82.95-5.35 82.38-4 81.8-2.66 80.8-1.66 79.8-0.66 78.46-0.09 77.12 0.49 75.6 0.49L75.6 0.49 73.6 0.49Q72.09 0.49 70.74-0.09 69.4-0.66 68.4-1.66 67.4-2.66 66.83-4 66.25-5.35 66.25-6.86L66.25-6.86 66.25-18.14Q66.25-19.65 66.83-21 67.4-22.34 68.4-23.34 69.4-24.34 70.74-24.91 72.09-25.49 73.6-25.49L73.6-25.49 75.6-25.49Q77.12-25.49 78.46-24.91 79.8-24.34 80.8-23.34 81.8-22.34 82.38-21 82.95-19.65 82.95-18.14L82.95-18.14 82.95-12.26 69.26-12.26 69.26-6.69Q69.26-5.79 69.6-4.99 69.94-4.2 70.52-3.61 71.11-3.03 71.9-2.69 72.7-2.34 73.6-2.34L73.6-2.34 75.6-2.34Q76.51-2.34 77.3-2.69 78.09-3.03 78.68-3.61 79.26-4.2 79.61-4.99 79.95-5.79 79.95-6.69L79.95-6.69 79.95-8.35 82.95-7.86 82.95-6.86ZM79.95-14.6L79.95-18.31Q79.95-19.21 79.61-20.01 79.26-20.8 78.68-21.39 78.09-21.97 77.3-22.31 76.51-22.66 75.6-22.66L75.6-22.66 73.6-22.66Q72.7-22.66 71.9-22.31 71.11-21.97 70.52-21.39 69.94-20.8 69.6-20.01 69.26-19.21 69.26-18.31L69.26-18.31 69.26-14.6 79.95-14.6ZM105.65-6.86L105.65-6.86Q105.65-5.35 105.08-4 104.51-2.66 103.51-1.66 102.5-0.66 101.16-0.09 99.82 0.49 98.31 0.49L98.31 0.49 96.3 0.49Q94.79 0.49 93.45-0.09 92.1-0.66 91.1-1.66 90.1-2.66 89.53-4 88.95-5.35 88.95-6.86L88.95-6.86 88.95-18.14Q88.95-19.65 89.53-21 90.1-22.34 91.1-23.34 92.1-24.34 93.45-24.91 94.79-25.49 96.3-25.49L96.3-25.49 98.31-25.49Q99.82-25.49 101.16-24.91 102.5-24.34 103.51-23.34 104.51-22.34 105.08-21 105.65-19.65 105.65-18.14L105.65-18.14 105.65-12.26 91.96-12.26 91.96-6.69Q91.96-5.79 92.3-4.99 92.64-4.2 93.23-3.61 93.81-3.03 94.61-2.69 95.4-2.34 96.3-2.34L96.3-2.34 98.31-2.34Q99.21-2.34 100-2.69 100.8-3.03 101.38-3.61 101.97-4.2 102.31-4.99 102.65-5.79 102.65-6.69L102.65-6.69 102.65-8.35 105.65-7.86 105.65-6.86ZM102.65-14.6L102.65-18.31Q102.65-19.21 102.31-20.01 101.97-20.8 101.38-21.39 100.8-21.97 100-22.31 99.21-22.66 98.31-22.66L98.31-22.66 96.3-22.66Q95.4-22.66 94.61-22.31 93.81-21.97 93.23-21.39 92.64-20.8 92.3-20.01 91.96-19.21 91.96-18.31L91.96-18.31 91.96-14.6 102.65-14.6ZM122.01-22.14L119.01-22.14Q118.1-22.14 117.31-21.8 116.52-21.46 115.93-20.87 115.34-20.29 115-19.49 114.66-18.7 114.66-17.8L114.66-17.8 114.66 0 111.66 0 111.66-25 112.66-25 114.29-22.46Q115.32-23.85 116.87-24.67 118.42-25.49 120.25-25.49L120.25-25.49 122.01-25.49 122.01-22.14ZM126.77-35.01L134.51-7.69 134.6-6.4 134.7-7.69 142.47-35.01 145.71-35.01 135.41 0 133.75 0 123.5-35.01 126.77-35.01ZM165.09 0L164.09 0 162.43-2.49Q161.41-1.15 159.87-0.33 158.33 0.49 156.5 0.49L156.5 0.49 155.74 0.49Q154.23 0.49 152.89-0.09 151.55-0.66 150.54-1.66 149.54-2.66 148.97-4 148.4-5.35 148.4-6.86L148.4-6.86 148.4-7.1Q148.4-8.62 148.97-9.96 149.54-11.3 150.54-12.3 151.55-13.31 152.89-13.88 154.23-14.45 155.74-14.45L155.74-14.45 162.09-14.45 162.09-18.31Q162.09-19.21 161.75-20.01 161.41-20.8 160.82-21.39 160.24-21.97 159.44-22.31 158.65-22.66 157.75-22.66L157.75-22.66 155.99-22.66Q155.09-22.66 154.29-22.31 153.5-21.97 152.91-21.39 152.33-20.8 151.98-20.01 151.64-19.21 151.64-18.31L151.64-18.31 151.64-17.41 148.64-17.9 148.64-18.14Q148.64-19.65 149.21-21 149.79-22.34 150.79-23.34 151.79-24.34 153.13-24.91 154.47-25.49 155.99-25.49L155.99-25.49 157.75-25.49Q159.26-25.49 160.6-24.91 161.95-24.34 162.95-23.34 163.95-22.34 164.52-21 165.09-19.65 165.09-18.14L165.09-18.14 165.09 0ZM162.09-6.69L162.09-12.11 155.74-12.11Q154.84-12.11 154.05-11.77 153.25-11.43 152.67-10.83 152.08-10.23 151.74-9.44 151.4-8.64 151.4-7.74L151.4-7.74 151.4-6.69Q151.4-5.79 151.74-4.99 152.08-4.2 152.67-3.61 153.25-3.03 154.05-2.69 154.84-2.34 155.74-2.34L155.74-2.34 157.75-2.34Q158.65-2.34 159.44-2.69 160.24-3.03 160.82-3.61 161.41-4.2 161.75-4.99 162.09-5.79 162.09-6.69L162.09-6.69ZM187.8 0L186.8 0 185.14-2.54Q184.11-1.15 182.57-0.33 181.03 0.49 179.2 0.49L179.2 0.49 178.45 0.49Q176.93 0.49 175.59-0.09 174.25-0.66 173.25-1.66 172.25-2.66 171.67-4 171.1-5.35 171.1-6.86L171.1-6.86 171.1-25 174.1-25 174.1-6.69Q174.1-5.79 174.44-4.99 174.78-4.2 175.37-3.61 175.96-3.03 176.75-2.69 177.54-2.34 178.45-2.34L178.45-2.34 180.45-2.34Q181.35-2.34 182.15-2.69 182.94-3.03 183.52-3.61 184.11-4.2 184.45-4.99 184.79-5.79 184.79-6.69L184.79-6.69 184.79-25 187.8-25 187.8 0ZM197.8 0L194.8 0 194.8-35.01 197.8-35.01 197.8 0ZM216.65 0L213.92 0Q212.55 0 211.34-0.51 210.13-1.03 209.24-1.93 208.35-2.83 207.82-4.03 207.3-5.22 207.3-6.59L207.3-6.59 207.3-22.14 202.81-22.14 202.81-25 207.3-25 207.3-31.01 210.3-31.49 210.3-25 216.65-25 216.65-22.14 210.3-22.14 210.3-6.45Q210.3-5.69 210.58-5.04 210.86-4.39 211.35-3.91 211.84-3.42 212.5-3.14 213.16-2.86 213.92-2.86L213.92-2.86 216.65-2.86 216.65 0Z" opacity="1" transform="matrix(1,0,0,1,0,0)" fill="#04140c" class="wordmark-text-0" data-fill-palette-color="primary" id="text-0"></path></svg></g></svg></g><g transform="matrix(1,0,0,1,75.54432,82.52725114664223)"><svg viewBox="0 0 244.43135999999998 19.909808484402994" height="19.909808484402994" width="244.43135999999998"><g transform="matrix(1,0,0,1,0,0)"></g></svg></g></svg></g></svg></g><g transform="matrix(1,0,0,1,83.59248710685102,0)"><svg viewBox="0 0 228.33502578629793 228.33502578629793" height="228.33502578629793" width="228.33502578629793"><g><svg></svg></g><g id="icon-0"><svg viewBox="0 0 228.33502578629793 228.33502578629793" height="228.33502578629793" width="228.33502578629793"><g><path d="M0 114.168c0-63.053 51.115-114.168 114.168-114.168 63.053 0 114.168 51.115 114.167 114.168 0 63.053-51.115 114.168-114.167 114.167-63.053 0-114.168-51.115-114.168-114.167zM114.168 222.314c59.728 0 108.147-48.419 108.146-108.146 0-59.728-48.419-108.147-108.146-108.147-59.728 0-108.147 48.419-108.147 108.147 0 59.728 48.419 108.147 108.147 108.146z" data-fill-palette-color="accent" fill="#3cc4ec" stroke="transparent"></path><ellipse rx="113.02583776421747" ry="113.02583776421747" cx="114.16751289314897" cy="114.16751289314897" fill="#3cc4ec" stroke="transparent" stroke-width="0" fill-opacity="1" data-fill-palette-color="accent"></ellipse></g><g transform="matrix(1,0,0,1,47.177970979428665,47.177970979428665)"><svg viewBox="0 0 133.9790838274406 133.9790838274406" height="133.9790838274406" width="133.9790838274406"><g><svg xmlns="http://www.w3.org/2000/svg" xmlns:xlink="http://www.w3.org/1999/xlink" version="1.1" x="0" y="0" viewBox="0 0 100 100" enable-background="new 0 0 100 100" xml:space="preserve" height="133.9790838274406" width="133.9790838274406" class="icon-dxe-0" data-fill-palette-color="quaternary" id="dxe-0"><g fill="#92daf2" data-fill-palette-color="quaternary"><g fill="#92daf2" data-fill-palette-color="quaternary"><path d="M92.727 64.732C92.149 62.505 89.838 57.553 85.883 57.553 81.93 57.553 80.381 59.176 76.457 59.176 72.535 59.176 71.289 46.657 65.207 46.657S59.43 56.244 51.978 56.244C35.833 56.244 41.64 39.49 29.933 39.49S20.668 60.5 5 64.71" fill="#92daf2" data-fill-palette-color="quaternary"></path></g><g fill="#92daf2" data-fill-palette-color="quaternary"><g fill="#92daf2" data-fill-palette-color="quaternary"><g fill="#92daf2" data-fill-palette-color="quaternary"><path fill="none" stroke="#92daf2" stroke-miterlimit="10" d="M93.336 54.078A10 10 0 0 0 93.027 53.685"></path><path fill="none" stroke="#92daf2" stroke-miterlimit="10" stroke-dasharray="0.9939,0.9939" d="M92.358 52.953C91.232 51.847 89.77 51.006 87.98 51.006 83.923 51.006 82.334 52.42 78.31 52.42 74.285 52.42 73.005 41.512 66.767 41.512S60.839 49.866 53.197 49.866C36.633 49.866 42.592 35.267 30.58 35.267 18.803 35.267 21.553 51.039 5.944 56.905"></path><path fill="none" stroke="#92daf2" stroke-miterlimit="10" d="M5.475 57.077C5.318 57.132 5.16 57.187 5 57.24"></path><g fill="#92daf2" data-fill-palette-color="quaternary"><polygon points="95.067,52.274 95,57.26 90.717,54.709      " fill="#92daf2" data-fill-palette-color="quaternary"></polygon></g></g></g></g></g></svg></g></svg></g></svg></g></svg></g><g></g></svg></g><defs></defs></svg><rect width="269.86956396733933" height="247.2" fill="none" stroke="none" visibility="hidden"></rect></g></svg></g></svg>